<?xml version="1.0" encoding="UTF-8"?>
<svg id="Layer_1" data-name="Layer 1" xmlns="http://www.w3.org/2000/svg" viewBox="0 0 703.01 864.32">
  <defs>
    <style>
      .cls-1 {
        stroke-width: 0px;
      }

      .cls-1, .cls-2 {
        fill: #093fb4;
      }

      .cls-2 {
        font-family: YekanBakhFaNum-Bold, 'Yekan Bakh FaNum';
        font-size: 170.06px;
        font-weight: 700;
      }
    </style>
  </defs>
  <g id="_338_Bubble_chat_message_chatting" data-name="338, Bubble, chat, message, chatting">
    <g>
      <path class="cls-1" d="m245.59,397.35c-20.95,0-37.5,16.55-37.5,37.5s16.55,37.5,37.5,37.5,37.51-16.54,37.51-37.5-17.65-37.5-37.51-37.5Zm0,46.33c-5.51,0-9.92-4.41-9.92-9.93s4.41-9.92,9.92-9.92,9.94,4.41,9.94,9.92-4.41,9.93-9.94,9.93Z"/>
      <path class="cls-1" d="m350.38,397.35c-20.95,0-37.5,16.55-37.5,37.5s16.55,37.5,37.5,37.5,37.51-16.54,37.51-37.5-16.55-37.5-37.51-37.5Zm0,46.33c-5.51,0-9.92-4.41-9.92-9.93s4.41-9.92,9.92-9.92,9.94,4.41,9.94,9.92-4.41,9.93-9.94,9.93Z"/>
      <path class="cls-1" d="m455.16,397.35c-20.95,0-37.5,16.55-37.5,37.5s16.55,37.5,37.5,37.5,37.51-16.54,37.51-37.5-16.55-37.5-37.51-37.5Zm0,46.33c-5.51,0-9.93-4.41-9.93-9.93s4.41-9.92,9.93-9.92,9.94,4.41,9.94,9.92-4.41,9.93-9.94,9.93Z"/>
      <path class="cls-1" d="m550.02,331.17H150.74c-57.36,0-103.68,46.33-103.68,103.68s46.32,103.68,103.68,103.68h340.82l100.37,66.18c2.21,1.11,5.52,2.21,7.72,2.21,8.82,0,15.44-8.82,13.24-17.64l-15.44-62.87c35.29-17.65,57.35-52.94,57.35-92.65-1.1-56.25-47.43-102.58-104.79-102.58Zm25.37,175.38c-6.62,2.21-11.04,9.93-8.82,16.55l9.92,39.71-73.9-49.64c-2.21-1.1-4.41-2.21-7.72-2.21H150.74c-41.91,0-76.11-34.19-76.11-76.11s34.2-76.11,76.11-76.11h400.38c41.92,0,76.11,34.19,76.11,76.11-1.1,31.99-20.95,60.66-51.84,71.69Z"/>
      <path class="cls-1" d="m455.16,209.84c20.96,0,37.51-16.54,37.51-37.5s-16.55-37.5-37.51-37.5-37.5,16.55-37.5,37.5c1.1,20.96,17.65,37.5,37.5,37.5Zm0-46.32c5.52,0,9.94,4.41,9.94,9.92s-4.41,9.93-9.94,9.93-9.93-4.41-9.93-9.93,4.41-9.92,9.93-9.92Z"/>
      <path class="cls-1" d="m350.38,209.84c20.96,0,37.51-16.54,37.51-37.5s-16.55-37.5-37.51-37.5-37.5,16.55-37.5,37.5,16.55,37.5,37.5,37.5Zm0-46.32c5.52,0,9.94,4.41,9.94,9.92s-4.41,9.93-9.94,9.93-9.92-4.41-9.92-9.93,4.41-9.92,9.92-9.92Z"/>
      <path class="cls-1" d="m245.59,209.84c20.96,0,37.51-16.54,37.51-37.5s-16.55-37.5-37.51-37.5-37.5,16.55-37.5,37.5,16.55,37.5,37.5,37.5Zm0-46.32c5.52,0,9.94,4.41,9.94,9.92s-4.41,9.93-9.94,9.93-9.92-4.41-9.92-9.93,4.41-9.92,9.92-9.92Z"/>
      <path class="cls-1" d="m150.74,276.02h400.38c57.36,0,103.68-46.32,103.68-103.68s-46.32-103.68-103.68-103.68H210.3L109.93,2.48c-4.41-3.31-11.04-3.31-15.45,0-4.41,3.31-6.61,8.82-5.51,14.34l15.45,62.87c-34.2,17.65-57.36,52.94-57.36,92.65,0,57.36,46.32,103.68,103.68,103.68Zm-25.37-175.38c6.62-2.21,11.04-9.92,8.82-16.54l-9.92-38.61,73.9,49.64c2.21,1.1,4.41,2.21,7.72,2.21h345.23c41.92,0,76.11,34.19,76.11,76.11s-34.19,76.11-76.11,76.11H150.74c-41.91,0-76.11-34.19-76.11-76.11,0-33.09,19.85-61.77,50.74-72.8Z"/>
    </g>
  </g>
  <text class="cls-2" transform="translate(-37.58 776.06)"><tspan x="0" y="0">نیانآ تچ</tspan></text>
</svg>